<svg xmlns="http://www.w3.org/2000/svg" width="574.113" height="19" viewBox="0 0 574.113 19">
  <g id="hoam-index-logo" transform="translate(5220.5 7759.785)">
    <path id="합치기_37" data-name="합치기 37" d="M408.989,9.013c0-5.181,3.277-9.013,8.5-9.013S426,3.832,426,9.013c0,5.155-3.275,8.987-8.5,8.987S408.989,14.168,408.989,9.013Zm3.277,0c0,3.576,1.813,6.27,5.251,6.27,3.413,0,5.179-2.693,5.179-6.27,0-3.6-1.766-6.364-5.179-6.364C414.079,2.648,412.267,5.413,412.267,9.013Zm-142.3,3.064h3.227c.233,2.229,1.7,3.343,4.345,3.343,1.881,0,3.438-.811,3.438-2.528,0-1.859-1.721-2.277-4.461-2.9-3.228-.72-5.924-1.579-5.924-5.039,0-3.275,2.7-4.924,6.389-4.924,4.019,0,6.34,1.929,6.667,5.108h-3.137c-.255-1.694-1.535-2.646-3.576-2.646-1.929,0-3.206.813-3.206,2.184,0,1.6,1.671,2.02,4.341,2.577,3.209.7,6.156,1.648,6.156,5.385,0,3.441-2.879,5.367-6.71,5.367C272.773,18,270.1,15.606,269.965,12.077ZM16.609,9.013C16.609,3.832,19.885,0,25.11,0s8.5,3.832,8.5,9.013c0,5.155-3.274,8.987-8.5,8.987S16.609,14.168,16.609,9.013Zm3.275,0c0,3.573,1.812,6.27,5.25,6.27,3.413,0,5.178-2.7,5.178-6.27,0-3.6-1.765-6.364-5.178-6.364C21.7,2.648,19.885,5.411,19.885,9.013Zm282.179,2.765V.327h3.206v11.4c0,2.321,1.276,3.507,3.74,3.507,2.346,0,3.67-1.232,3.67-3.554V.327h3.229v11.45c0,4.087-2.671,6.131-6.924,6.131C304.69,17.908,302.063,15.886,302.063,11.777Zm-48.08,0V.327h3.206v11.4c0,2.321,1.276,3.507,3.74,3.507,2.344,0,3.668-1.232,3.668-3.554V.327h3.228v11.45c0,4.087-2.671,6.131-6.921,6.131C256.607,17.908,253.983,15.886,253.983,11.777Zm310.488,5.829V3.089h-5.389V.327h14.03V3.089H567.7V17.606Zm-9.918,0c-.44-.279-.44-1.626-.626-3.95-.186-2.042-1.139-2.924-3.206-2.924h-3.692v6.874h-3.206V.327h8.151c3.23,0,5.552,1.834,5.552,4.854a4.1,4.1,0,0,1-3.181,4.271v.073c1.834.557,2.508,1.6,2.693,3.737.279,2.532.3,3.948.768,4.181v.163ZM547.029,8.27h4.181c2.02,0,3.089-1.021,3.089-2.623,0-1.721-.906-2.7-2.973-2.7h-4.3Zm-8.62,9.337L537.038,13.5h-6.55l-1.394,4.111h-3.25L532.115.327h3.438l6.295,17.279ZM532.65,7.131l-1.37,4h4.972l-1.324-4a40,40,0,0,1-1.092-4.155h-.047S533.206,5.482,532.65,7.131ZM428.55,17.6V.323h12.265V3.089h-9.06V7.524h7.55V10.2h-7.55V17.6Zm-95.362,0V8.594c0-1.881.211-5.389.211-5.389h-.048s-.717,3.184-1.276,4.9L328.8,17.6h-2.6l-3.3-9.5c-.561-1.718-1.278-4.9-1.278-4.9h-.046s.207,3.508.207,5.389V17.6H318.9V.327h4.252l2.834,8.223c.674,2.017,1.511,5.8,1.511,5.8h.069s.834-3.763,1.487-5.8L331.841.327h4.345V17.6Zm-46.408,0V.327h12.636v2.74h-9.428V7.342h8.336V9.918h-8.336v4.877h9.639V17.6Zm-38.788,0V8.594c0-1.881.208-5.389.208-5.389h-.048s-.72,3.184-1.276,4.9L243.6,17.6H241l-3.3-9.5c-.56-1.718-1.279-4.9-1.279-4.9h-.045s.207,3.508.207,5.389V17.6H233.7V.327h4.251L240.79,8.55c.674,2.017,1.511,5.8,1.511,5.8h.068s.835-3.763,1.485-5.8L246.642.327h4.345V17.6ZM66.2,17.6V8.594c0-1.881.21-5.389.21-5.389h-.048s-.718,3.181-1.276,4.9l-3.274,9.5h-2.6l-3.3-9.5c-.557-1.721-1.276-4.9-1.276-4.9h-.048s.211,3.508.211,5.389V17.6H51.915V.323h4.25L59,8.547c.676,2.02,1.51,5.808,1.51,5.808h.072s.834-3.763,1.484-5.808L64.853.323H69.2V17.6Zm-19.7,0L45.133,13.5h-6.55L37.189,17.6H33.937L40.209.323h3.436L49.939,17.6ZM40.741,7.131l-1.369,4h4.971l-1.324-4a39.951,39.951,0,0,1-1.092-4.158h-.044S41.3,5.482,40.741,7.131ZM10.847,17.6V9.94H3.206V17.6H0V.323H3.206V7.27h7.641V.323h3.23V17.6Z" transform="translate(-5220 -7759.285)" fill="#fff" stroke="rgba(0,0,0,0)" stroke-miterlimit="10" stroke-width="1"/>
  </g>
</svg>
