<?xml version="1.0" encoding="utf-8"?>
<!-- Generator: Adobe Illustrator 26.3.1, SVG Export Plug-In . SVG Version: 6.00 Build 0)  -->
<svg version="1.1" id="Layer_1" xmlns="http://www.w3.org/2000/svg" xmlns:xlink="http://www.w3.org/1999/xlink" x="0px" y="0px"
	 viewBox="0 0 64 64" style="enable-background:new 0 0 64 64;" xml:space="preserve">
<style type="text/css">
	.st0{fill:#FFFFFF;}
</style>
<g>
	<rect x="0" y="0" class="st0" width="64" height="64"/>
</g>
<path d="M21.72,38.64c0.03,1.85,0.56,3.66,1.52,5.24c1.7,2.51,4.7,3.76,9,3.76c1.79,0.02,3.57-0.26,5.26-0.83
	c2.69-0.59,4.6-2.97,4.59-5.73c0.16-1.71-0.57-3.38-1.94-4.41c-1.9-1.09-3.97-1.84-6.13-2.24l-5.14-1.16
	c-2.49-0.44-4.9-1.29-7.12-2.5c-2.39-1.55-3.76-4.25-3.6-7.09c-0.1-3.18,1.19-6.23,3.53-8.38c2.79-2.34,6.37-3.51,10.01-3.28
	c3.59-0.11,7.13,0.9,10.12,2.88c2.88,2.14,4.46,5.62,4.17,9.19h-4.83c-0.13-1.67-0.7-3.29-1.65-4.67c-2.05-2.18-4.99-3.28-7.97-2.97
	c-2.34-0.22-4.67,0.46-6.52,1.91c-1.26,1.13-1.98,2.74-1.99,4.44c-0.1,1.7,0.81,3.3,2.32,4.08c2.22,0.93,4.52,1.62,6.88,2.06
	l5.31,1.2c2.12,0.4,4.13,1.22,5.93,2.4c2.42,1.8,3.77,4.7,3.6,7.71c0.3,3.62-1.47,7.1-4.57,9c-3.24,1.86-6.92,2.79-10.65,2.71
	c-4,0.23-7.95-1.06-11.04-3.61c-2.71-2.48-4.15-6.06-3.92-9.72L21.72,38.64L21.72,38.64z"/>
</svg>
