<?xml version="1.0" encoding="utf-8"?>
<!-- Generator: Adobe Illustrator 27.4.0, SVG Export Plug-In . SVG Version: 6.00 Build 0)  -->
<svg version="1.1" id="leeum_icon_scrolldown" xmlns="http://www.w3.org/2000/svg" xmlns:xlink="http://www.w3.org/1999/xlink"
	 x="0px" y="0px" viewBox="0 0 40 40" style="enable-background:new 0 0 40 40;" xml:space="preserve">
<style type="text/css">
	.st0{fill:#A5A5AA;}
</style>
<g>
	<path id="패스_50827" class="st0" d="M20,1.5c5.1,0,9.3,4.2,9.3,9.3h1.5C30.8,4.8,26,0,20,0C14,0,9.2,4.8,9.2,10.8h1.5
		C10.7,5.7,14.9,1.5,20,1.5z"/>
	<path id="패스_50828" class="st0" d="M20.8,30v-3.2h-1.5V30c-4.8-0.4-8.5-4.4-8.5-9.2H9.2c0,5.7,4.4,10.3,10,10.7v5.2l-3.1-3.1
		l-1.1,1.1l4.9,4.9l4.9-4.9l-1.1-1.1l-3.1,3.1v-5.2c5.6-0.4,10-5.1,10-10.7h-1.5C29.3,25.6,25.6,29.7,20.8,30z"/>
	<path id="패스_50829" class="st0" d="M20,3c-4.5,0-8.1,3.7-8.1,8.1v5.5h1.5v-5.5c0-3.7,3-6.6,6.6-6.7C20,4.5,20,3,20,3z"/>
	<path id="패스_50830" class="st0" d="M28.2,20.4v-1.8h-1.5v1.8c0,3-2,6.4-4.8,6.4v1.5C25.6,28.3,28.2,24.2,28.2,20.4z"/>
	<path id="패스_50831" class="st0" d="M20,13.4c1.4,0,2.6-1.2,2.6-2.6S21.4,8.3,20,8.3c-1.4,0-2.6,1.2-2.6,2.6c0,0,0,0,0,0
		C17.4,12.3,18.6,13.4,20,13.4z M20,9.8c0.6,0,1.1,0.5,1.1,1.1s-0.5,1.1-1.1,1.1c-0.6,0-1.1-0.5-1.1-1.1c0,0,0,0,0,0
		C18.9,10.3,19.4,9.8,20,9.8z"/>
</g>
</svg>
