<?xml version="1.0" encoding="utf-8"?>
<!-- Generator: Adobe Illustrator 28.3.0, SVG Export Plug-In . SVG Version: 6.00 Build 0)  -->
<svg version="1.1" id="레이어_1" xmlns="http://www.w3.org/2000/svg" xmlns:xlink="http://www.w3.org/1999/xlink" x="0px"
	 y="0px" viewBox="0 0 50 50" style="enable-background:new 0 0 50 50;" xml:space="preserve">
<style type="text/css">
	.st0{fill:none;stroke:#F2F2F2;}
	.st1{fill-rule:evenodd;clip-rule:evenodd;fill:#4285F4;}
	.st2{fill-rule:evenodd;clip-rule:evenodd;fill:#34A853;}
	.st3{fill-rule:evenodd;clip-rule:evenodd;fill:#FBBC05;}
	.st4{fill-rule:evenodd;clip-rule:evenodd;fill:#EA4335;}
	.st5{fill:none;}
</style>
<g id="ic-sns-login-google" transform="translate(-748 -446)">
	<circle class="st0" cx="773" cy="471" r="24.5"/>
	<g id="logo_googleg_48dp_00000163788405256428021920000002090624279280498337_" transform="translate(16 16)">
		<path id="Shape_00000036215657294658142630000008317536207585439904_" class="st1" d="M766.6,455.2c0-0.7-0.1-1.4-0.2-2H757v3.9
			h5.4c-0.2,1.2-0.9,2.3-2,3v2.5h3.2C765.6,460.7,766.7,458,766.6,455.2z"/>
		<path id="Shape-2_00000075877351792463281860000012246304532284742816_" class="st2" d="M757,465c2.4,0.1,4.8-0.8,6.6-2.4
			l-3.2-2.5c-2.8,1.8-6.5,1-8.3-1.8c-0.3-0.4-0.5-0.9-0.6-1.3h-3.3v2.6C749.8,462.9,753.2,465,757,465z"/>
		<path id="Shape-3_00000157282399920021485630000008220120217801057165_" class="st3" d="M751.4,456.9c-0.4-1.2-0.4-2.6,0-3.8v-2.6
			h-3.3c-1.4,2.8-1.4,6.2,0,9L751.4,456.9z"/>
		<path id="Shape-4_00000001635641872534939590000016676027378364529043_" class="st4" d="M757,449c1.4,0,2.8,0.5,3.8,1.5l2.9-2.9
			c-1.8-1.7-4.2-2.6-6.7-2.6c-3.8,0-7.2,2.1-8.9,5.5l3.3,2.6C752.2,450.7,754.4,449,757,449z"/>
		<path id="Shape-5_00000001662873772838969890000010616351505498042504_" class="st5" d="M747,445h20v20h-20V445z"/>
	</g>
</g>
</svg>
